<mxfile host="Electron" agent="Mozilla/5.0 (Windows NT 10.0; Win64; x64) AppleWebKit/537.36 (KHTML, like Gecko) draw.io/27.0.9 Chrome/134.0.6998.205 Electron/35.4.0 Safari/537.36" version="27.0.9">
  <diagram name="Page-1" id="uUPTzXB2PNQjzdKDsUn4">
    <mxGraphModel dx="852" dy="2224" grid="1" gridSize="10" guides="0" tooltips="1" connect="1" arrows="1" fold="1" page="1" pageScale="1" pageWidth="850" pageHeight="1100" math="0" shadow="0">
      <root>
        <mxCell id="0" />
        <mxCell id="1" parent="0" />
        <mxCell id="_BiyPARDCMRa6rGWlx5m-14" value="crm_cust_info" style="swimlane;fontStyle=0;childLayout=stackLayout;horizontal=1;startSize=30;horizontalStack=0;resizeParent=1;resizeParentMax=0;resizeLast=0;collapsible=1;marginBottom=0;whiteSpace=wrap;html=1;fillColor=#dae8fc;strokeColor=#6c8ebf;" vertex="1" parent="1">
          <mxGeometry x="499" y="496" width="180" height="90" as="geometry" />
        </mxCell>
        <mxCell id="_BiyPARDCMRa6rGWlx5m-16" value="cst_id" style="text;strokeColor=none;fillColor=none;align=left;verticalAlign=middle;spacingLeft=4;spacingRight=4;overflow=hidden;points=[[0,0.5],[1,0.5]];portConstraint=eastwest;rotatable=0;whiteSpace=wrap;html=1;" vertex="1" parent="_BiyPARDCMRa6rGWlx5m-14">
          <mxGeometry y="30" width="180" height="30" as="geometry" />
        </mxCell>
        <mxCell id="_BiyPARDCMRa6rGWlx5m-63" value="&lt;div&gt;&lt;br&gt;&lt;/div&gt;cst_key&lt;div&gt;&lt;br&gt;&lt;/div&gt;" style="text;strokeColor=none;fillColor=none;align=left;verticalAlign=middle;spacingLeft=4;spacingRight=4;overflow=hidden;points=[[0,0.5],[1,0.5]];portConstraint=eastwest;rotatable=0;whiteSpace=wrap;html=1;" vertex="1" parent="_BiyPARDCMRa6rGWlx5m-14">
          <mxGeometry y="60" width="180" height="30" as="geometry" />
        </mxCell>
        <mxCell id="_BiyPARDCMRa6rGWlx5m-18" value="customer info" style="text;html=1;align=center;verticalAlign=middle;whiteSpace=wrap;rounded=0;" vertex="1" parent="1">
          <mxGeometry x="559" y="456" width="60" height="40" as="geometry" />
        </mxCell>
        <mxCell id="_BiyPARDCMRa6rGWlx5m-19" value="crm_prd_info" style="swimlane;fontStyle=0;childLayout=stackLayout;horizontal=1;startSize=30;horizontalStack=0;resizeParent=1;resizeParentMax=0;resizeLast=0;collapsible=1;marginBottom=0;whiteSpace=wrap;html=1;fillColor=#dae8fc;strokeColor=#6c8ebf;" vertex="1" parent="1">
          <mxGeometry x="499" y="256" width="180" height="60" as="geometry" />
        </mxCell>
        <mxCell id="_BiyPARDCMRa6rGWlx5m-20" value="prd_key" style="text;strokeColor=none;fillColor=none;align=left;verticalAlign=middle;spacingLeft=4;spacingRight=4;overflow=hidden;points=[[0,0.5],[1,0.5]];portConstraint=eastwest;rotatable=0;whiteSpace=wrap;html=1;" vertex="1" parent="_BiyPARDCMRa6rGWlx5m-19">
          <mxGeometry y="30" width="180" height="30" as="geometry" />
        </mxCell>
        <mxCell id="_BiyPARDCMRa6rGWlx5m-23" value="product info" style="text;html=1;align=center;verticalAlign=middle;whiteSpace=wrap;rounded=0;" vertex="1" parent="1">
          <mxGeometry x="534" y="226" width="100" height="30" as="geometry" />
        </mxCell>
        <mxCell id="_BiyPARDCMRa6rGWlx5m-28" value="transactional and sales table" style="text;html=1;align=center;verticalAlign=middle;whiteSpace=wrap;rounded=0;" vertex="1" parent="1">
          <mxGeometry x="229" y="316" width="120" height="30" as="geometry" />
        </mxCell>
        <mxCell id="_BiyPARDCMRa6rGWlx5m-57" style="edgeStyle=orthogonalEdgeStyle;rounded=0;orthogonalLoop=1;jettySize=auto;html=1;entryX=0;entryY=0.25;entryDx=0;entryDy=0;" edge="1" parent="1" source="_BiyPARDCMRa6rGWlx5m-52" target="_BiyPARDCMRa6rGWlx5m-19">
          <mxGeometry relative="1" as="geometry" />
        </mxCell>
        <mxCell id="_BiyPARDCMRa6rGWlx5m-52" value="crm_cust_info" style="swimlane;fontStyle=0;childLayout=stackLayout;horizontal=1;startSize=40;horizontalStack=0;resizeParent=1;resizeParentMax=0;resizeLast=0;collapsible=1;marginBottom=0;whiteSpace=wrap;html=1;fillColor=#dae8fc;strokeColor=#6c8ebf;" vertex="1" parent="1">
          <mxGeometry x="189" y="346" width="180" height="100" as="geometry" />
        </mxCell>
        <mxCell id="_BiyPARDCMRa6rGWlx5m-53" value="prd_key" style="text;html=1;align=center;verticalAlign=middle;resizable=0;points=[];autosize=1;strokeColor=none;fillColor=none;" vertex="1" parent="_BiyPARDCMRa6rGWlx5m-52">
          <mxGeometry y="40" width="180" height="30" as="geometry" />
        </mxCell>
        <mxCell id="_BiyPARDCMRa6rGWlx5m-54" value="cst_id" style="text;html=1;align=center;verticalAlign=middle;resizable=0;points=[];autosize=1;strokeColor=none;fillColor=none;" vertex="1" parent="_BiyPARDCMRa6rGWlx5m-52">
          <mxGeometry y="70" width="180" height="30" as="geometry" />
        </mxCell>
        <mxCell id="_BiyPARDCMRa6rGWlx5m-58" style="edgeStyle=orthogonalEdgeStyle;rounded=0;orthogonalLoop=1;jettySize=auto;html=1;entryX=0;entryY=0.5;entryDx=0;entryDy=0;" edge="1" parent="1" source="_BiyPARDCMRa6rGWlx5m-53" target="_BiyPARDCMRa6rGWlx5m-14">
          <mxGeometry relative="1" as="geometry" />
        </mxCell>
        <mxCell id="_BiyPARDCMRa6rGWlx5m-59" value="erp_cust_az12" style="swimlane;fontStyle=0;childLayout=stackLayout;horizontal=1;startSize=30;horizontalStack=0;resizeParent=1;resizeParentMax=0;resizeLast=0;collapsible=1;marginBottom=0;whiteSpace=wrap;html=1;fillColor=#fff2cc;strokeColor=#d6b656;" vertex="1" parent="1">
          <mxGeometry x="779" y="371" width="180" height="60" as="geometry" />
        </mxCell>
        <mxCell id="_BiyPARDCMRa6rGWlx5m-60" value="cid" style="text;strokeColor=none;fillColor=none;align=left;verticalAlign=middle;spacingLeft=4;spacingRight=4;overflow=hidden;points=[[0,0.5],[1,0.5]];portConstraint=eastwest;rotatable=0;whiteSpace=wrap;html=1;" vertex="1" parent="_BiyPARDCMRa6rGWlx5m-59">
          <mxGeometry y="30" width="180" height="30" as="geometry" />
        </mxCell>
        <mxCell id="_BiyPARDCMRa6rGWlx5m-62" value="extra customer information and birthdate&lt;span style=&quot;background-color: transparent; color: light-dark(rgb(0, 0, 0), rgb(255, 255, 255));&quot;&gt;&amp;nbsp;&lt;/span&gt;" style="text;html=1;align=center;verticalAlign=middle;resizable=0;points=[];autosize=1;strokeColor=none;fillColor=none;" vertex="1" parent="1">
          <mxGeometry x="739" y="336" width="240" height="30" as="geometry" />
        </mxCell>
        <mxCell id="_BiyPARDCMRa6rGWlx5m-64" style="edgeStyle=orthogonalEdgeStyle;rounded=0;orthogonalLoop=1;jettySize=auto;html=1;entryX=0.994;entryY=0.767;entryDx=0;entryDy=0;entryPerimeter=0;" edge="1" parent="1" source="_BiyPARDCMRa6rGWlx5m-60" target="_BiyPARDCMRa6rGWlx5m-16">
          <mxGeometry relative="1" as="geometry" />
        </mxCell>
        <mxCell id="_BiyPARDCMRa6rGWlx5m-65" value="erp_px_cat_g1v2" style="swimlane;fontStyle=0;childLayout=stackLayout;horizontal=1;startSize=30;horizontalStack=0;resizeParent=1;resizeParentMax=0;resizeLast=0;collapsible=1;marginBottom=0;whiteSpace=wrap;html=1;fillColor=#fff2cc;strokeColor=#d6b656;" vertex="1" parent="1">
          <mxGeometry x="799" y="236" width="180" height="60" as="geometry" />
        </mxCell>
        <mxCell id="_BiyPARDCMRa6rGWlx5m-66" value="id" style="text;strokeColor=none;fillColor=none;align=left;verticalAlign=middle;spacingLeft=4;spacingRight=4;overflow=hidden;points=[[0,0.5],[1,0.5]];portConstraint=eastwest;rotatable=0;whiteSpace=wrap;html=1;" vertex="1" parent="_BiyPARDCMRa6rGWlx5m-65">
          <mxGeometry y="30" width="180" height="30" as="geometry" />
        </mxCell>
        <mxCell id="_BiyPARDCMRa6rGWlx5m-67" value="extra customer information and category" style="text;html=1;align=center;verticalAlign=middle;resizable=0;points=[];autosize=1;strokeColor=none;fillColor=none;" vertex="1" parent="1">
          <mxGeometry x="759" y="196" width="240" height="30" as="geometry" />
        </mxCell>
        <mxCell id="_BiyPARDCMRa6rGWlx5m-68" style="edgeStyle=orthogonalEdgeStyle;rounded=0;orthogonalLoop=1;jettySize=auto;html=1;entryX=0.972;entryY=-0.1;entryDx=0;entryDy=0;entryPerimeter=0;" edge="1" parent="1" source="_BiyPARDCMRa6rGWlx5m-66" target="_BiyPARDCMRa6rGWlx5m-20">
          <mxGeometry relative="1" as="geometry" />
        </mxCell>
        <mxCell id="_BiyPARDCMRa6rGWlx5m-69" value="erp_loc_101" style="swimlane;fontStyle=0;childLayout=stackLayout;horizontal=1;startSize=30;horizontalStack=0;resizeParent=1;resizeParentMax=0;resizeLast=0;collapsible=1;marginBottom=0;whiteSpace=wrap;html=1;fillColor=#fff2cc;strokeColor=#d6b656;" vertex="1" parent="1">
          <mxGeometry x="789" y="596" width="180" height="60" as="geometry" />
        </mxCell>
        <mxCell id="_BiyPARDCMRa6rGWlx5m-70" value="cid" style="text;strokeColor=none;fillColor=none;align=left;verticalAlign=middle;spacingLeft=4;spacingRight=4;overflow=hidden;points=[[0,0.5],[1,0.5]];portConstraint=eastwest;rotatable=0;whiteSpace=wrap;html=1;" vertex="1" parent="_BiyPARDCMRa6rGWlx5m-69">
          <mxGeometry y="30" width="180" height="30" as="geometry" />
        </mxCell>
        <mxCell id="_BiyPARDCMRa6rGWlx5m-71" value="extra coustomer detail and country" style="text;html=1;align=center;verticalAlign=middle;whiteSpace=wrap;rounded=0;" vertex="1" parent="1">
          <mxGeometry x="829" y="566" width="100" height="30" as="geometry" />
        </mxCell>
        <mxCell id="_BiyPARDCMRa6rGWlx5m-72" style="edgeStyle=orthogonalEdgeStyle;rounded=0;orthogonalLoop=1;jettySize=auto;html=1;" edge="1" parent="1" source="_BiyPARDCMRa6rGWlx5m-70" target="_BiyPARDCMRa6rGWlx5m-63">
          <mxGeometry relative="1" as="geometry" />
        </mxCell>
        <mxCell id="_BiyPARDCMRa6rGWlx5m-73" value="" style="rounded=0;whiteSpace=wrap;html=1;fillColor=none;" vertex="1" parent="1">
          <mxGeometry x="180" y="176" width="520" height="564" as="geometry" />
        </mxCell>
        <mxCell id="_BiyPARDCMRa6rGWlx5m-75" value="Text" style="text;html=1;align=center;verticalAlign=middle;whiteSpace=wrap;rounded=0;" vertex="1" parent="1">
          <mxGeometry x="510" y="270" width="60" height="30" as="geometry" />
        </mxCell>
        <mxCell id="_BiyPARDCMRa6rGWlx5m-77" value="&lt;font style=&quot;font-size: 23px;&quot;&gt;CRM&lt;/font&gt;" style="text;html=1;align=center;verticalAlign=middle;whiteSpace=wrap;rounded=0;" vertex="1" parent="1">
          <mxGeometry x="300" y="100" width="180" height="100" as="geometry" />
        </mxCell>
        <mxCell id="_BiyPARDCMRa6rGWlx5m-78" value="" style="rounded=0;whiteSpace=wrap;html=1;fillColor=none;" vertex="1" parent="1">
          <mxGeometry x="750" y="150" width="250" height="590" as="geometry" />
        </mxCell>
        <mxCell id="_BiyPARDCMRa6rGWlx5m-79" value="&lt;font style=&quot;font-size: 24px;&quot;&gt;EPR&lt;/font&gt;" style="text;html=1;align=center;verticalAlign=middle;whiteSpace=wrap;rounded=0;" vertex="1" parent="1">
          <mxGeometry x="900" y="110" width="60" height="30" as="geometry" />
        </mxCell>
        <mxCell id="_BiyPARDCMRa6rGWlx5m-80" value="&lt;h1&gt;&lt;font style=&quot;font-size: 27px;&quot;&gt;&lt;b&gt;&lt;i&gt;&lt;u&gt;INTEGRATION MODEL&lt;/u&gt;&lt;/i&gt;&lt;/b&gt;&lt;/font&gt;&lt;/h1&gt;" style="text;html=1;align=center;verticalAlign=middle;whiteSpace=wrap;rounded=0;" vertex="1" parent="1">
          <mxGeometry x="60" y="-20" width="410" height="90" as="geometry" />
        </mxCell>
      </root>
    </mxGraphModel>
  </diagram>
</mxfile>
